<?xml version="1.0" encoding="UTF-8" standalone="no"?>
<svg
   xmlns:dc="http://purl.org/dc/elements/1.1/"
   xmlns:cc="http://creativecommons.org/ns#"
   xmlns:rdf="http://www.w3.org/1999/02/22-rdf-syntax-ns#"
   xmlns:svg="http://www.w3.org/2000/svg"
   xmlns="http://www.w3.org/2000/svg"
   version="1.1"
   id="svg2"
   viewBox="0 0 256 256"
   height="256"
   width="256">
  <defs
     id="defs4" />
  <metadata
     id="metadata7">
    <rdf:RDF>
      <cc:Work
         rdf:about="">
        <dc:format>image/svg+xml</dc:format>
        <dc:type
           rdf:resource="http://purl.org/dc/dcmitype/StillImage" />
        <dc:title></dc:title>
      </cc:Work>
    </rdf:RDF>
  </metadata>
  <g
     transform="translate(0,-796.36219)"
     id="layer1">
    <path
       id="path5668"
       d="m 120.76367,803.26367 c -20.39486,0.38523 -40.885215,5.81401 -59.589842,16.99024 -53.6248946,32.04147 -74.543199,103.51803 -41.433594,158.05468 29.320789,48.29591 94.136856,67.05601 143.351566,36.58201 42.96148,-26.60195 59.56638,-84.77495 31.70117,-128.66208 -23.8859,-37.61979 -75.4415,-52.06832 -113.992189,-26.77149 -32.26799,21.17415 -44.558996,66.15253 -21.765625,99.35156 18.469984,26.90193 56.943754,37.03862 84.761724,16.63477 21.5161,-15.78158 29.50307,-47.90295 11.26171,-70.27148 -6.56889,-8.05514 -15.85556,-13.263 -25.98828,-14.78321 -10.13272,-1.52021 -21.66656,1.14884 -30.017576,9.46289 -5.395349,5.37147 -8.480954,12.25793 -8.925781,20.00196 -0.444826,7.74402 3.105046,17.39914 11.482427,22.29492 6.48661,3.79081 10.65532,3.26483 16.40039,1.43554 2.87253,-0.91464 6.57408,-2.63784 9.11132,-7.08007 2.53724,-4.44224 1.93709,-10.60151 0.0195,-14.33008 a 11.332575,11.332575 0 0 0 -12.19726,-6.10156 c 0.0319,-0.0351 0.0685,-0.12918 0.0996,-0.16016 2.93489,-2.9219 6.34138,-3.75986 10.66406,-3.11133 4.32269,0.64853 9.00741,3.28474 11.78711,6.69336 9.19753,11.27851 4.75179,28.98162 -7.10156,37.67578 -16.65828,12.21847 -41.020953,5.78516 -52.67383,-11.1875 -15.113173,-22.01266 -6.630098,-53.04422 15.515625,-67.57617 27.351605,-17.94803 65.058585,-7.38423 82.425785,19.96875 20.75013,32.68103 8.08289,77.07255 -24.5,97.24805 -38.00427,23.53245 -89.080937,8.75225 -112.046879,-29.07617 -26.301901,-43.32331 -9.401686,-101.09396 33.683594,-126.8379 48.639395,-29.06257 113.106275,-10.034 141.619145,38.31641 28.89247,48.99412 14.39187,113.6501 -30.51758,148.04491 a 11.332575,11.332575 0 1 0 13.77929,17.9922 c 53.8837,-41.2679 71.21768,-118.266 36.25782,-177.54883 -23.8999,-40.528 -68.30319,-64.09749 -113.17188,-63.25 z M 112.625,922.32422 c 0.23666,0.14511 0.0477,0.0414 0.41797,0.25781 -0.32037,-0.18722 -0.4144,-0.14645 -0.41797,-0.25781 z"
       style="color:#000000;font-style:normal;font-variant:normal;font-weight:normal;font-stretch:normal;font-size:medium;line-height:normal;font-family:sans-serif;text-indent:0;text-align:start;text-decoration:none;text-decoration-line:none;text-decoration-style:solid;text-decoration-color:#000000;letter-spacing:normal;word-spacing:normal;text-transform:none;direction:ltr;block-progression:tb;writing-mode:lr-tb;baseline-shift:baseline;text-anchor:start;white-space:normal;clip-rule:nonzero;display:inline;overflow:visible;visibility:visible;opacity:1;isolation:auto;mix-blend-mode:normal;color-interpolation:sRGB;color-interpolation-filters:linearRGB;solid-color:#000000;solid-opacity:1;fill:#ff0000;fill-opacity:1;fill-rule:evenodd;stroke:none;stroke-width:22.66288376;stroke-linecap:round;stroke-linejoin:bevel;stroke-miterlimit:4;stroke-dasharray:none;stroke-dashoffset:0;stroke-opacity:1;color-rendering:auto;image-rendering:auto;shape-rendering:auto;text-rendering:auto;enable-background:accumulate" />
  </g>
</svg>
